<svg xmlns="http://www.w3.org/2000/svg" width="1200" height="800" viewBox="0 0 1200 800">
  <defs>
    <linearGradient id="bg" x1="0" y1="0" x2="1" y2="1">
      <stop offset="0%" stop-color="#f9f6ef" />
      <stop offset="100%" stop-color="#efe7dc" />
    </linearGradient>
    <linearGradient id="accent" x1="0" y1="0" x2="1" y2="1">
      <stop offset="0%" stop-color="#1d6b5a" stop-opacity="0.2" />
      <stop offset="100%" stop-color="#f0a202" stop-opacity="0.15" />
    </linearGradient>
  </defs>
  <rect width="1200" height="800" rx="32" fill="url(#bg)" />
  <rect x="60" y="60" width="1080" height="680" rx="28" fill="#ffffff" stroke="#e5dfd6" />

  <rect x="120" y="140" width="420" height="36" rx="18" fill="#1d6b5a" opacity="0.15" />
  <rect x="120" y="200" width="360" height="18" rx="9" fill="#7b7268" opacity="0.4" />
  <rect x="120" y="230" width="280" height="18" rx="9" fill="#7b7268" opacity="0.3" />

  <rect x="120" y="290" width="460" height="220" rx="22" fill="#f6f4ef" stroke="#e6e1d8" />
  <rect x="140" y="320" width="360" height="16" rx="8" fill="#8a837a" opacity="0.45" />
  <rect x="140" y="350" width="300" height="16" rx="8" fill="#8a837a" opacity="0.35" />
  <rect x="140" y="380" width="320" height="16" rx="8" fill="#8a837a" opacity="0.35" />

  <rect x="640" y="290" width="420" height="220" rx="22" fill="#fbfaf7" stroke="#e6e1d8" />
  <rect x="660" y="320" width="300" height="16" rx="8" fill="#8a837a" opacity="0.45" />
  <rect x="660" y="350" width="280" height="16" rx="8" fill="#8a837a" opacity="0.35" />
  <rect x="660" y="380" width="260" height="16" rx="8" fill="#8a837a" opacity="0.35" />

  <rect x="120" y="560" width="220" height="44" rx="22" fill="#1d6b5a" />
  <rect x="360" y="560" width="160" height="44" rx="22" fill="#ffffff" stroke="#d9d2c7" />

  <rect x="640" y="560" width="160" height="44" rx="22" fill="#f0a202" opacity="0.8" />
  <rect x="820" y="560" width="180" height="44" rx="22" fill="#ffffff" stroke="#d9d2c7" />

  <rect x="720" y="110" width="360" height="140" rx="22" fill="url(#accent)" />
  <rect x="740" y="140" width="240" height="16" rx="8" fill="#1d6b5a" opacity="0.3" />
  <rect x="740" y="170" width="200" height="16" rx="8" fill="#1d6b5a" opacity="0.2" />
</svg>
